<svg xmlns="http://www.w3.org/2000/svg" width="377.953" height="377.953" viewBox="0 0 100 100"><defs><radialGradient id="A" cx="37.494" cy="35.433" fx="37.494" fy="35.433" r="35" gradientTransform="translate(-5.4022363e-5)" gradientUnits="userSpaceOnUse"><stop offset="0" stop-color="#2b3a54"/><stop offset="1" stop-color="#19202e"/></radialGradient><radialGradient id="B" cx="372.875" cy="68.508" fx="372.875" fy="68.508" r="187.113" gradientTransform="matrix(-0.3305682,-0.4726641,0.72981271,-0.51037687,421.25316,400.02074)" gradientUnits="userSpaceOnUse"><stop offset="0" stop-color="#238da5" stop-opacity=".749"/><stop offset="1" stop-color="#1b2688" stop-opacity=".749"/></radialGradient><filter id="C" x="-.023" y="-.098" width="1.047" height="1.197" color-interpolation-filters="sRGB"><feGaussianBlur stdDeviation="3.639"/></filter><filter id="D" x="-.006" y="-.006" width="1.011" height="1.011" color-interpolation-filters="sRGB"><feGaussianBlur stdDeviation=".164"/></filter></defs><circle cx="49.726" cy="50" r="35" transform="rotate(339.556 49.726 50)" fill="url(#A)" filter="url(#D)"/><path d="M61.207 151.371C22.74 161.049.845 174.685.826 188.975c.017 14.29 21.912 27.927 60.381 37.605 34.533 8.698 79.771 13.528 126.732 13.533 46.952-.001 92.187-4.826 126.729-13.518 38.485-9.682 60.382-23.325 60.385-37.621-.018-14.277-21.873-27.902-60.281-37.58l.943 3.344.854 3.357.764 3.377.676 3.396.586 3.414.498 3.426.211 1.781c6.052 4.946 9.163 10.193 9.182 15.484-.003 5.336-3.151 10.628-9.289 15.611-20.811 16.908-73.015 28.075-131.256 28.076-58.268-.006-110.481-11.187-131.26-28.107-6.124-4.974-9.271-10.254-9.285-15.58.015-5.325 3.162-10.603 9.285-15.576.169-1.709.37-3.414.605-5.115.541-3.421 1.217-6.819 2.025-10.188.573-2.258 1.205-4.5 1.896-6.725zm-3.922 58.299c.541 3.421 1.217 6.819 2.025 10.188-.808-3.368-1.484-6.766-2.025-10.188zm261.309 0c-.541 3.421-1.217 6.819-2.025 10.187.808-3.368 1.484-6.766 2.025-10.187z" transform="matrix(.247919 -.092416 .092416 .247919 -14.957749 18.840495)" fill="url(#B)" filter="url(#C)"/></svg>